<mxfile host="www.draw.io" modified="2019-10-17T16:06:12.076Z" agent="Mozilla/5.0 (Windows NT 10.0; Win64; x64) AppleWebKit/537.36 (KHTML, like Gecko) Chrome/77.0.3865.90 Safari/537.36" etag="07AO5o3klgDvRQIhAfN3" version="12.1.3" type="github" pages="1">
  <diagram id="qAwSxH5UlQRJzh6k_6QT" name="Page-1">
    <mxGraphModel dx="1422" dy="768" grid="1" gridSize="10" guides="1" tooltips="1" connect="1" arrows="1" fold="1" page="1" pageScale="1" pageWidth="827" pageHeight="1169" math="0" shadow="0">
      <root>
        <mxCell id="0"/>
        <mxCell id="1" parent="0"/>
        <mxCell id="DfF9kkiXucvoUqCh04rs-1" value="" style="shape=cylinder;whiteSpace=wrap;html=1;boundedLbl=1;backgroundOutline=1;" parent="1" vertex="1">
          <mxGeometry x="110" y="290" width="60" height="80" as="geometry"/>
        </mxCell>
        <mxCell id="DfF9kkiXucvoUqCh04rs-2" value="models.py" style="rounded=0;whiteSpace=wrap;html=1;" parent="1" vertex="1">
          <mxGeometry x="200" y="180" width="120" height="60" as="geometry"/>
        </mxCell>
        <mxCell id="DfF9kkiXucvoUqCh04rs-3" value="views.py" style="rounded=0;whiteSpace=wrap;html=1;" parent="1" vertex="1">
          <mxGeometry x="470" y="180" width="120" height="60" as="geometry"/>
        </mxCell>
        <mxCell id="DfF9kkiXucvoUqCh04rs-4" value="Templates&lt;br&gt;index.html&lt;br&gt;(HTML-JS-CSS)" style="rounded=0;whiteSpace=wrap;html=1;" parent="1" vertex="1">
          <mxGeometry x="270" y="350" width="220" height="110" as="geometry"/>
        </mxCell>
        <mxCell id="DfF9kkiXucvoUqCh04rs-5" value="&lt;font style=&quot;font-size: 22px&quot;&gt;www.pizzafrapp.fr&lt;/font&gt;" style="text;html=1;resizable=0;points=[];autosize=1;align=left;verticalAlign=top;spacingTop=-4;" parent="1" vertex="1">
          <mxGeometry x="261" y="101" width="190" height="20" as="geometry"/>
        </mxCell>
        <mxCell id="DfF9kkiXucvoUqCh04rs-6" value="" style="endArrow=classic;html=1;entryX=0.25;entryY=0;entryDx=0;entryDy=0;" parent="1" target="DfF9kkiXucvoUqCh04rs-3" edge="1">
          <mxGeometry width="50" height="50" relative="1" as="geometry">
            <mxPoint x="410" y="130" as="sourcePoint"/>
            <mxPoint x="440" y="111" as="targetPoint"/>
          </mxGeometry>
        </mxCell>
        <mxCell id="DfF9kkiXucvoUqCh04rs-7" value="request" style="text;html=1;resizable=0;points=[];autosize=1;align=left;verticalAlign=top;spacingTop=-4;" parent="1" vertex="1">
          <mxGeometry x="460" y="132" width="60" height="20" as="geometry"/>
        </mxCell>
        <mxCell id="DfF9kkiXucvoUqCh04rs-11" value="database" style="text;html=1;resizable=0;points=[];autosize=1;align=left;verticalAlign=top;spacingTop=-4;" parent="1" vertex="1">
          <mxGeometry x="110" y="380" width="60" height="20" as="geometry"/>
        </mxCell>
        <mxCell id="DfF9kkiXucvoUqCh04rs-14" value="" style="endArrow=classic;html=1;entryX=0;entryY=0.5;entryDx=0;entryDy=0;" parent="1" target="DfF9kkiXucvoUqCh04rs-3" edge="1">
          <mxGeometry width="50" height="50" relative="1" as="geometry">
            <mxPoint x="320" y="210" as="sourcePoint"/>
            <mxPoint x="370" y="160" as="targetPoint"/>
          </mxGeometry>
        </mxCell>
        <mxCell id="DfF9kkiXucvoUqCh04rs-15" value="queryset" style="text;html=1;resizable=0;points=[];autosize=1;align=left;verticalAlign=top;spacingTop=-4;" parent="1" vertex="1">
          <mxGeometry x="352" y="177" width="60" height="20" as="geometry"/>
        </mxCell>
        <mxCell id="DfF9kkiXucvoUqCh04rs-16" value="" style="endArrow=classic;html=1;exitX=0;exitY=0.5;exitDx=0;exitDy=0;entryX=0.5;entryY=0;entryDx=0;entryDy=0;" parent="1" source="DfF9kkiXucvoUqCh04rs-2" target="DfF9kkiXucvoUqCh04rs-1" edge="1">
          <mxGeometry width="50" height="50" relative="1" as="geometry">
            <mxPoint x="115" y="212" as="sourcePoint"/>
            <mxPoint x="165" y="162" as="targetPoint"/>
            <Array as="points">
              <mxPoint x="140" y="210"/>
            </Array>
          </mxGeometry>
        </mxCell>
        <mxCell id="DfF9kkiXucvoUqCh04rs-17" value="" style="endArrow=classic;html=1;entryX=0.333;entryY=1;entryDx=0;entryDy=0;entryPerimeter=0;" parent="1" target="DfF9kkiXucvoUqCh04rs-2" edge="1">
          <mxGeometry width="50" height="50" relative="1" as="geometry">
            <mxPoint x="170" y="335" as="sourcePoint"/>
            <mxPoint x="220" y="285" as="targetPoint"/>
            <Array as="points">
              <mxPoint x="240" y="335"/>
            </Array>
          </mxGeometry>
        </mxCell>
        <mxCell id="DfF9kkiXucvoUqCh04rs-18" value="read/write" style="text;html=1;resizable=0;points=[];autosize=1;align=left;verticalAlign=top;spacingTop=-4;" parent="1" vertex="1">
          <mxGeometry x="181" y="345" width="70" height="20" as="geometry"/>
        </mxCell>
        <mxCell id="DfF9kkiXucvoUqCh04rs-19" value="" style="endArrow=classic;html=1;entryX=0;entryY=0.75;entryDx=0;entryDy=0;exitX=1;exitY=0.75;exitDx=0;exitDy=0;" parent="1" source="DfF9kkiXucvoUqCh04rs-2" target="DfF9kkiXucvoUqCh04rs-3" edge="1">
          <mxGeometry width="50" height="50" relative="1" as="geometry">
            <mxPoint x="320" y="230" as="sourcePoint"/>
            <mxPoint x="370" y="180" as="targetPoint"/>
          </mxGeometry>
        </mxCell>
        <mxCell id="DfF9kkiXucvoUqCh04rs-20" value="resultset" style="text;html=1;resizable=0;points=[];autosize=1;align=left;verticalAlign=top;spacingTop=-4;" parent="1" vertex="1">
          <mxGeometry x="371" y="234" width="60" height="20" as="geometry"/>
        </mxCell>
        <mxCell id="DfF9kkiXucvoUqCh04rs-21" value="" style="endArrow=classic;html=1;exitX=0.45;exitY=0.992;exitDx=0;exitDy=0;exitPerimeter=0;" parent="1" source="DfF9kkiXucvoUqCh04rs-3" target="DfF9kkiXucvoUqCh04rs-4" edge="1">
          <mxGeometry width="50" height="50" relative="1" as="geometry">
            <mxPoint x="520" y="294" as="sourcePoint"/>
            <mxPoint x="570" y="244" as="targetPoint"/>
          </mxGeometry>
        </mxCell>
        <mxCell id="DfF9kkiXucvoUqCh04rs-22" value="response" style="text;html=1;resizable=0;points=[];autosize=1;align=left;verticalAlign=top;spacingTop=-4;" parent="1" vertex="1">
          <mxGeometry x="483" y="298" width="60" height="20" as="geometry"/>
        </mxCell>
        <mxCell id="DfF9kkiXucvoUqCh04rs-23" value="&lt;font style=&quot;font-size: 22px&quot;&gt;le pattern Model Vue Template&lt;/font&gt;" style="text;html=1;resizable=0;points=[];autosize=1;align=left;verticalAlign=top;spacingTop=-4;" parent="1" vertex="1">
          <mxGeometry x="261" y="492" width="310" height="20" as="geometry"/>
        </mxCell>
      </root>
    </mxGraphModel>
  </diagram>
</mxfile>
